<svg xmlns="http://www.w3.org/2000/svg" viewBox="0 0 54 54"><defs><style>.cls-1{fill:#005fa2;}</style></defs><title>earthRisorsa 22</title><g id="Livello_2" data-name="Livello 2"><g id="Livello_2-2" data-name="Livello 2"><path d="M27,42.33A15.33,15.33,0,1,1,42.33,27,15.35,15.35,0,0,1,27,42.33Zm0-29.41A14.08,14.08,0,1,0,41.08,27,14.1,14.1,0,0,0,27,12.92Z"/><path d="M16.42,28.17a.62.62,0,0,1-.62-.56A11.26,11.26,0,0,1,18.85,19a11.26,11.26,0,0,1,8.78-3.21.63.63,0,0,1,.56.68.63.63,0,0,1-.68.57,10,10,0,0,0-7.77,2.83A10,10,0,0,0,17,27.49a.62.62,0,0,1-.56.68Z"/><path d="M11.8,46.86a4.68,4.68,0,0,1-3.43-1.21c-2.14-2.14-1.5-6.53,1.81-12.37a.62.62,0,1,1,1.08.62c-2.91,5.15-3.66,9.21-2,10.87s5.72.9,10.87-2a62.57,62.57,0,0,0,12.67-9.93,62.52,62.52,0,0,0,10-12.68c2.91-5.15,3.66-9.22,2-10.87s-5.71-.9-10.85,2a.62.62,0,0,1-.85-.23.63.63,0,0,1,.23-.86c5.83-3.3,10.22-3.94,12.35-1.8s1.5,6.52-1.81,12.37A62.33,62.33,0,0,1,33.67,33.69,62.61,62.61,0,0,1,20.74,43.83C17.2,45.84,14.13,46.86,11.8,46.86Z"/></g></g></svg>