<svg xmlns="http://www.w3.org/2000/svg" viewBox="0 0 54 54"><defs><style>.cls-1{fill:#005fa2;}</style></defs><title>englishRisorsa 24</title><g id="Livello_2" data-name="Livello 2"><g id="Livello_2-2" data-name="Livello 2"><path d="M33.59,43.69a.59.59,0,0,1-.23,0c-14.2-5.73-16.11-22.5-16-32a.62.62,0,0,1,.38-.57,41.39,41.39,0,0,1,31.7,0,.65.65,0,0,1,.38.57c.12,9.49-1.8,26.25-16,32A.67.67,0,0,1,33.59,43.69Zm-15-31.6c-.05,9.18,1.89,24.85,15,30.3,13.11-5.45,15-21.12,15-30.29a40.1,40.1,0,0,0-30,0Z"/><path d="M33.59,43.69a.59.59,0,0,1-.23,0c-14.2-5.73-16.11-22.5-16-32a.62.62,0,0,1,.38-.57,41.39,41.39,0,0,1,31.7,0,.65.65,0,0,1,.38.57c.12,9.49-1.8,26.25-16,32A.67.67,0,0,1,33.59,43.69Zm-15-31.6c-.05,9.18,1.89,24.85,15,30.3,13.11-5.45,15-21.12,15-30.29a40.1,40.1,0,0,0-30,0Z"/><path d="M23.86,23.28l-.14,0a.64.64,0,0,1-.47-.75A4,4,0,0,1,27,19.36a4,4,0,0,1,3.88,3.15.63.63,0,1,1-1.22.28,2.65,2.65,0,0,0-5.22,0A.63.63,0,0,1,23.86,23.28Z"/><path d="M43.33,23.28a.64.64,0,0,1-.61-.49,2.73,2.73,0,0,0-2.57-2.18,2.76,2.76,0,0,0-2.65,2.18.62.62,0,1,1-1.21-.28,4,4,0,0,1,3.87-3.15,4,4,0,0,1,3.78,3.15.62.62,0,0,1-.47.75Z"/><path d="M33.6,35.61c-2.9,0-5.45-1.62-7.59-4.82a.63.63,0,0,1,.18-.87.62.62,0,0,1,.86.18c1.89,2.83,4.09,4.26,6.55,4.26s4.65-1.43,6.54-4.26a.62.62,0,1,1,1,.69C39.05,34,36.5,35.61,33.6,35.61Z"/><path d="M24.56,46.05h0c-12-.41-17.89-12.23-20.34-19.23a.64.64,0,0,1,.17-.67,31.88,31.88,0,0,1,10.16-6.31A.62.62,0,1,1,15,21a30.92,30.92,0,0,0-9.46,5.79c2.4,6.69,7.94,17.47,18.81,18a16.14,16.14,0,0,0,2.11-2.36.62.62,0,0,1,.87-.14.64.64,0,0,1,.14.88A17.56,17.56,0,0,1,25,45.89.58.58,0,0,1,24.56,46.05Z"/><path d="M14.44,33.61a2.86,2.86,0,0,1-2.29-.84.63.63,0,0,1,.11-.88.62.62,0,0,1,.88.12,2.74,2.74,0,0,0,2.18.26,2.74,2.74,0,0,0,2-1.06.63.63,0,0,1,.77-.43.64.64,0,0,1,.43.78c-.29,1-1.7,1.71-3,1.94A6.12,6.12,0,0,1,14.44,33.61Z"/></g></g></svg>