<svg xmlns="http://www.w3.org/2000/svg" viewBox="0 0 54 54"><defs><style>.cls-1{fill:#005fa2;}</style></defs><title>footballRisorsa 25</title><g id="Livello_2" data-name="Livello 2"><g id="Livello_2-2" data-name="Livello 2"><path d="M12.77,38.46h0Z"/><path d="M8.22,17.62h0c0,.27,0,.53.08.79C8.26,18.15,8.24,17.89,8.22,17.62Zm37.4,17.3h0c0,.3.09.6.12.91C45.7,35.53,45.66,35.22,45.62,34.92Z"/><path d="M8.22,17.62h0c0,.27,0,.53.08.79C8.26,18.15,8.24,17.89,8.22,17.62Zm37.4,17.3h0c0,.3.09.6.12.91C45.7,35.53,45.66,35.22,45.62,34.92Z"/><path d="M46.92,35.25c0-.35-.08-.7-.14-1s-.13-.81-.21-1.21A32.63,32.63,0,0,0,21,7.43c-.39-.08-.79-.15-1.18-.21l-1-.13h-.11a30.69,30.69,0,0,0-3.33-.23H14.9a31.44,31.44,0,0,0-4.37.31,4,4,0,0,0-3.39,3.38,31.44,31.44,0,0,0-.3,4.88c0,1,.07,1.93.18,2.88.05.46.11.92.18,1.37s.14.9.23,1.34A32.6,32.6,0,0,0,33,46.57l1.23.21c.39.07.78.12,1.17.16a30.5,30.5,0,0,0,3.19.22h.5a31.59,31.59,0,0,0,4.38-.3,4,4,0,0,0,3.38-3.39,31.35,31.35,0,0,0,.31-4.88A30.7,30.7,0,0,0,46.92,35.25ZM8.29,18.41c0-.26-.06-.52-.08-.79-.07-.73-.11-1.48-.12-2.23a30.33,30.33,0,0,1,.29-4.68,2.71,2.71,0,0,1,2.33-2.32,29.11,29.11,0,0,1,4.19-.3h.49a30.09,30.09,0,0,1,3.69.29A28.79,28.79,0,0,1,8.38,19.09Zm25.32,27-.37-.07A31.39,31.39,0,0,1,8.66,20.76c0-.12-.05-.24-.07-.37a29.64,29.64,0,0,0,11.8-11.8l.37.07A31.39,31.39,0,0,1,45.34,33.25c0,.12,0,.24.06.36A29.68,29.68,0,0,0,33.61,45.41Zm12-2.12a2.73,2.73,0,0,1-2.33,2.33,30.76,30.76,0,0,1-4.2.29h-.48c-.81,0-1.62-.06-2.42-.14-.25,0-.5,0-.75-.08a2.06,2.06,0,0,1-.26,0l-.26,0a28.74,28.74,0,0,1,10.69-10.7h0c0,.3.08.61.11.91a.28.28,0,0,1,0,.09,26.79,26.79,0,0,1,.17,2.69A31.54,31.54,0,0,1,45.62,43.29Z"/><path d="M21.19,25.07a.62.62,0,0,1-.62-.62V18a.63.63,0,1,1,1.25,0v6.5A.63.63,0,0,1,21.19,25.07Z"/><path d="M24.44,21.82h-6.5a.63.63,0,0,1,0-1.25h6.5a.63.63,0,1,1,0,1.25Z"/><path d="M27,30.88a.63.63,0,0,1-.63-.63v-6.5a.63.63,0,0,1,1.25,0v6.5A.63.63,0,0,1,27,30.88Z"/><path d="M30.25,27.63h-6.5a.63.63,0,1,1,0-1.25h6.5a.63.63,0,0,1,0,1.25Z"/><path d="M32.8,36.68a.62.62,0,0,1-.62-.62v-6.5a.63.63,0,1,1,1.25,0v6.5A.63.63,0,0,1,32.8,36.68Z"/><path d="M36.05,33.43h-6.5a.63.63,0,0,1,0-1.25h6.5a.63.63,0,1,1,0,1.25Z"/></g></g></svg>