<svg xmlns="http://www.w3.org/2000/svg" viewBox="0 0 54 54"><defs><style>.cls-1{fill:#005fa2;}</style></defs><title>literatureRisorsa 23</title><g id="Livello_2" data-name="Livello 2"><g id="Livello_2-2" data-name="Livello 2"><path d="M6.09,46a.6.6,0,0,1-.29-.08.62.62,0,0,1-.26-.84c.09-.16,8.81-16.16,28.23-28.12a.63.63,0,0,1,.86.21.62.62,0,0,1-.21.86C15.29,29.81,6.73,45.52,6.64,45.68A.61.61,0,0,1,6.09,46Z"/><path d="M15.34,39.88a.63.63,0,0,1,0-1.25,21.88,21.88,0,0,0,15.83-6.88l-2.65-.9a.63.63,0,0,1,.22-1.22s2.23,0,6.25-2.15c3.81-2.08,4.81-5.08,5.86-8.26.21-.64.43-1.29.67-1.93,1.15-3.1,4.05-7.19,5.31-8.88a33.83,33.83,0,0,0-8.93-.53,10,10,0,0,0-7.52,3.9.62.62,0,0,1-1.14-.44L29.62,9a20.41,20.41,0,0,0-7.48,4.7,21,21,0,0,0-5.57,8.35.68.68,0,0,1-.64.46.64.64,0,0,1-.58-.53l-.43-2.61a16.09,16.09,0,0,0-3,5.19,35.16,35.16,0,0,0-1.79,9.55.63.63,0,0,1-.65.6.62.62,0,0,1-.6-.64,35.74,35.74,0,0,1,1.87-9.95c1.71-4.62,4.11-6.45,4.21-6.53a.62.62,0,0,1,1,.4l.27,1.61a24.21,24.21,0,0,1,5-6.8c4.58-4.39,8.84-5.25,9-5.28a.63.63,0,0,1,.73.72l-.2,1.21a11.85,11.85,0,0,1,7-2.82,33.86,33.86,0,0,1,10.27.77.65.65,0,0,1,.43.41.6.6,0,0,1-.1.58c0,.06-4.33,5.6-5.72,9.33-.23.63-.44,1.27-.65,1.9-1.09,3.26-2.21,6.65-6.46,9a22.29,22.29,0,0,1-4.37,1.86l1.22.41a.62.62,0,0,1,.39.4.66.66,0,0,1-.08.56c-.22.31-5.61,7.73-17.37,8.07Z"/><path d="M38.93,47.47a2.69,2.69,0,0,1-2.27-1.57,3.17,3.17,0,0,0-3.07-1.77,10.74,10.74,0,0,0-5.33,1.94,7.63,7.63,0,0,1-3.5,1.4A3.53,3.53,0,0,1,22,45.71c-.69-.84-1.28-1.58-2.44-1.58-2.07,0-5.54,2.31-6.7,3.21a.62.62,0,0,1-.87-.12.63.63,0,0,1,.11-.88c.18-.14,4.54-3.46,7.46-3.46a4.25,4.25,0,0,1,3.41,2c.65.8,1.08,1.29,1.76,1.29A7,7,0,0,0,27.63,45a12,12,0,0,1,6-2.11,4.37,4.37,0,0,1,4.1,2.32c.46.69.71,1,1.24,1,1.75,0,3.41-2.08,3.42-2.1a.63.63,0,0,1,1,.77C43.25,45,41.29,47.47,38.93,47.47Z"/></g></g></svg>