<svg xmlns="http://www.w3.org/2000/svg" viewBox="0 0 54 54"><defs><style>.cls-1{fill:#005fa2;}</style></defs><title>mathRisorsa 24</title><g id="Livello_2" data-name="Livello 2"><g id="Livello_2-2" data-name="Livello 2"><path d="M45.73,43.4,38.62,32a19,19,0,0,0,5.53-6.68A.63.63,0,1,0,43,24.78,17.84,17.84,0,0,1,38,31l-6-9.59a5.2,5.2,0,0,0,.42-2.06,5.39,5.39,0,0,0-4.18-5.24,7,7,0,0,0,1.48-4.33,7.13,7.13,0,0,0-2.24-5.19.63.63,0,0,0-.85,0,7.07,7.07,0,0,0-.77,9.52A5.35,5.35,0,0,0,22.19,17a5.32,5.32,0,0,0-.12,4.45L16.1,31A17.66,17.66,0,0,1,11,24.78a.63.63,0,0,0-1.12.56A19.22,19.22,0,0,0,15.43,32l-3.6,5.76A4.56,4.56,0,0,0,8.4,43.66a2.41,2.41,0,0,0,.21.53,4.37,4.37,0,0,0,1.69,1.92,4.64,4.64,0,0,0,1.85.67V49a.63.63,0,1,0,1.25,0V46.75a4.52,4.52,0,0,0,3.17-2.08,4.42,4.42,0,0,0,.53-3.54L21,35a19.22,19.22,0,0,0,5.43,1v3.51a.63.63,0,1,0,1.25,0V35.92a19,19,0,0,0,5.45-1l9,14.36a.6.6,0,0,0,.53.3h0a.66.66,0,0,0,.53-.35L45.76,44A.66.66,0,0,0,45.73,43.4ZM25.59,9.74A5.83,5.83,0,0,1,27,5.9a5.89,5.89,0,0,1,0,7.67A5.81,5.81,0,0,1,25.59,9.74Zm-2.28,7.77a4.12,4.12,0,0,1,7.42,0,4.13,4.13,0,0,1,0,3.63,4.12,4.12,0,0,1-7.82-1.84A4,4,0,0,1,23.31,17.51ZM15.51,44a3.26,3.26,0,0,1-2.37,1.52,2.1,2.1,0,0,1-.36,0h-.06A3.25,3.25,0,0,1,11,45.05a3.1,3.1,0,0,1-1.23-1.4,1.17,1.17,0,0,1-.14-.35,3.21,3.21,0,0,1,.33-2.78A3.31,3.31,0,0,1,12.28,39a.81.81,0,0,1,.22,0h.36a2.51,2.51,0,0,1,.86.15,2.08,2.08,0,0,1,.32.12,3.33,3.33,0,0,1,1.79,2h0A3.21,3.21,0,0,1,15.51,44Zm1-4.27c-.09-.13-.18-.26-.28-.38a3.51,3.51,0,0,0-.33-.34,2.74,2.74,0,0,0-.36-.32c-.13-.1-.26-.2-.4-.29a4.49,4.49,0,0,0-1.34-.56l-.44-.1,3.11-5a18.31,18.31,0,0,0,3.3,1.76Zm3.94-6.31a16.29,16.29,0,0,1-3.31-1.73l5.66-9.07a5.47,5.47,0,0,0,.66.7l.37.3a5,5,0,0,0,.8.49.66.66,0,0,0,.19.09l.16.07a3.86,3.86,0,0,0,.54.19l.47.11Zm7.21,1.24v-3.5a.63.63,0,1,0-1.25,0v3.5a17.83,17.83,0,0,1-4.74-.81L27,25.25l5.38,8.61A18.12,18.12,0,0,1,27.64,34.67Zm.44-10.09.43-.1.15-.05a2.3,2.3,0,0,0,.34-.12,5.07,5.07,0,0,0,1.61-1l.17-.16A1.89,1.89,0,0,0,31,23c.09-.11.19-.22.28-.34l5.67,9.08a16.17,16.17,0,0,1-3.32,1.74ZM42.53,47.7,34.29,34.51a18.35,18.35,0,0,0,3.3-1.76l6.89,11Z"/></g></g></svg>