<svg xmlns="http://www.w3.org/2000/svg" viewBox="0 0 54 54"><defs><style>.cls-1{fill:#005fa2;}</style></defs><title>physicsRisorsa 17</title><g id="Livello_2" data-name="Livello 2"><g id="Livello_2-2" data-name="Livello 2"><path d="M27,31.23A4.23,4.23,0,1,1,31.23,27,4.24,4.24,0,0,1,27,31.23ZM27,24a3,3,0,1,0,3,3A3,3,0,0,0,27,24Z"/><path d="M30.91,36.55a.61.61,0,0,1-.54-.33.62.62,0,0,1,.24-.85c.31-.17.62-.34.92-.52a38.14,38.14,0,0,0,11.7-10c2.45-3.37,3.2-6.45,2.05-8.44-2-3.49-9.6-3.37-18,.29a.63.63,0,0,1-.5-1.15c9.17-4,17.24-3.88,19.62.24,1.42,2.47.67,5.95-2.13,9.8A39.51,39.51,0,0,1,32.16,35.94l-.95.53A.61.61,0,0,1,30.91,36.55Z"/><path d="M15.11,41.34c-3.57,0-6.26-1.06-7.48-3.16-1.42-2.47-.67-6,2.13-9.8A39.51,39.51,0,0,1,21.84,18.06l1-.54a.63.63,0,1,1,.6,1.1l-.93.53a38.14,38.14,0,0,0-11.7,10c-2.45,3.37-3.2,6.45-2,8.44,2,3.49,9.6,3.37,18-.29a.63.63,0,0,1,.5,1.15A31.64,31.64,0,0,1,15.11,41.34Z"/><path d="M36.68,28.7h0a.63.63,0,0,1-.61-.64c0-.35,0-.71,0-1.06,0-11.44-4.15-21.11-9.07-21.11-4,0-7.72,6.63-8.77,15.76a.63.63,0,0,1-.69.55.63.63,0,0,1-.55-.69c1.14-9.94,5.25-16.87,10-16.87,5.79,0,10.32,9.82,10.32,22.36,0,.36,0,.73,0,1.09A.63.63,0,0,1,36.68,28.7Z"/><path d="M27,49.36c-5.79,0-10.32-9.82-10.32-22.36,0-.37,0-.74,0-1.1a.65.65,0,0,1,.64-.61.62.62,0,0,1,.61.64c0,.35,0,.71,0,1.07,0,11.44,4.15,21.11,9.07,21.11,4,0,7.72-6.63,8.77-15.76a.62.62,0,1,1,1.24.14C35.87,42.42,31.76,49.36,27,49.36Z"/><path d="M17.61,33.05a.58.58,0,0,1-.37-.13c-8-6-12-13-9.61-17.1,1.43-2.47,4.82-3.56,9.55-3.06a39.43,39.43,0,0,1,15,5.3l.93.56a.62.62,0,0,1-.64,1.07c-.3-.19-.61-.37-.92-.54A38.2,38.2,0,0,0,17.05,14c-4.15-.44-7.19.46-8.33,2.44-2,3.5,1.88,10,9.26,15.48a.63.63,0,0,1-.37,1.13Z"/><path d="M39,41.36a20.16,20.16,0,0,1-2.14-.12,39.43,39.43,0,0,1-15-5.3l-.95-.56a.63.63,0,0,1-.21-.86.62.62,0,0,1,.86-.21l.93.54A38.2,38.2,0,0,0,37,40c4.15.43,7.19-.46,8.33-2.44,2-3.5-1.88-10-9.26-15.48a.62.62,0,1,1,.74-1c8,6,12,13,9.61,17.1C45.17,40.26,42.57,41.36,39,41.36Z"/></g></g></svg>