<svg xmlns="http://www.w3.org/2000/svg" viewBox="0 0 231.2 173.37"><defs><style>.cls-1{fill:#42b5e8;}.cls-2{fill:#fff;}.cls-3{fill:#231f20;}</style></defs><title>mailRisorsa 28</title><g id="Livello_2" data-name="Livello 2"><g id="Livello_5" data-name="Livello 5"><path class="cls-1" d="M210.55,75.85c-2.05,7.78-6.09,14.77-10.69,21.42a92.3,92.3,0,0,0-40.75,21.86,90.77,90.77,0,0,0-17,21.43,59,59,0,0,1-23.49,22.7q-2.43,1.29-4.92,2.46c-11.78,5.52-24.91,8.84-37.81,7.25S50.4,164.39,44,153.07c-3.76-6.66-6.21-15.39-13.48-17.76-3.42-1.12-7.2-.46-10.69-1.37-4.53-1.18-8-5-10-9.23s-2.45-9-2.73-13.71a143.13,143.13,0,0,1,7.24-54,92.58,92.58,0,0,0,62-28.25h0A184.22,184.22,0,0,1,162.24,5c5.75-.14,11.64,0,17,2s10.26,6.2,11.72,11.76c1.54,5.87-.74,12.69,2.48,17.83,2,3.2,5.66,4.89,8.63,7.23C211.29,51.08,213.51,64.55,210.55,75.85Z"/><path class="cls-2" d="M112.16,26c-1.29,15.6-1.55,33-2.84,48.63-.22,2.63-.6,5.56-2.66,7.2-2.42,1.92-5.85.78-8.9.33C71.19,78.16,45,71.89,18.65,69.91c-3.92-.3-10.19,0-12.16-3.41a8.55,8.55,0,0,1-1-5.3C7.61,43.44,7.94,33.26,7.15,9.36c-.08-2.5-.11-5,0-7.51C38,3.39,65.38,6.54,102.46,12c4,.59,6.35,2.56,8.56,5.88C112.56,20.2,112.39,23.21,112.16,26Z"/><path class="cls-3" d="M3.74,4.61a204.28,204.28,0,0,1-1,46c-.55,4-1.22,8-2,12-.42,2.21-1.09,4.72-.62,7,.79,3.73,3.52,4.29,7,4.34a.75.75,0,0,0,0-1.5c-2.5,0-3.07.06-4.43-2.33S1.61,66.51,2,63.86s1-5.57,1.48-8.37q1.24-7.86,1.93-15.78a204.69,204.69,0,0,0-.21-35.1c-.09-1-1.59-1-1.5,0Z"/><path class="cls-3" d="M7.12,1.5q36,2.55,71.82,7.63,8.24,1.17,16.46,2.49c5.46.87,15.7.34,16.95,7.1.43,2.32-.26,5.46-.38,7.85-.14,2.7-.27,5.4-.47,8.1-.39,5.64-1,11.27-1.38,16.9-.07,1,1.43,1,1.5,0,.47-6.23,1.11-12.46,1.51-18.7.31-5,1.71-11.39.62-16.25-.83-3.72-3.92-4.1-7.29-4.69C99.7,10.73,92.9,9.69,86.11,8.67Q46.8,2.79,7.12,0c-1-.07-1,1.43,0,1.5Z"/><path class="cls-3" d="M109.84,56.93,109,69.57c-.12,1.8-.18,3.62-.35,5.41-.56,6.1-5.08,7.61-10.33,6.54C97.41,81.33,97,82.77,98,83c4.2.86,9.12,1.32,11.33-3.16,1.44-2.92,1-7.13,1.25-10.23l.81-12.64c.06-1-1.44-1-1.5,0Z"/><path class="cls-3" d="M7.12,73.85C37.61,74.7,68,77.17,98,83c.94.19,1.35-1.26.4-1.44C68.24,75.7,37.74,73.21,7.12,72.35a.75.75,0,0,0,0,1.5Z"/><path class="cls-3" d="M7,5.68C21.35,26.31,39,44,56.76,61.73c.69.68,1.75-.38,1.06-1.06C40.16,43.07,22.57,25.45,8.26,4.93c-.55-.79-1.85,0-1.3.75Z"/><path class="cls-3" d="M57.82,61.73A619.08,619.08,0,0,0,109.35,17c.69-.67-.37-1.73-1.06-1.06A619.08,619.08,0,0,1,56.76,60.67c-.76.6.31,1.65,1.06,1.06Z"/><path class="cls-2" d="M204.81,137l-.69.29A23.12,23.12,0,0,0,218.05,155c-6.48,2.13-13.74.48-18.24-1.36a34.52,34.52,0,0,1-11.86-8,20.43,20.43,0,0,1-3.43-4.93c-28.08,9.62-62.94,18.27-93.21,15.84-8.94-.72-20.65-2.21-26.71-9.18-4.14-4.77-8.36-10.83-6.95-22.88.89-7.6,4.16-11.75,9.62-17.12C77.5,97.38,98,92.05,112.31,90.56c-2.74,2.17-5.12,3.84-6.88,6.21,27.07-11.84,58.44-17.41,88.24-19.71,8.48-.66,16.93-.66,24.79,5,6.06,4.31,9.61,14,9.56,22.55,0,7.14-3.54,15.49-8,21.07A37.24,37.24,0,0,1,204.81,137Z"/><path class="cls-3" d="M73.49,100.59c-11.58,6.35-19.36,19.21-17.8,32.61s10.93,22.48,24.06,24.45c37.06,5.56,72.93-6,108.21-15.64a.75.75,0,0,0-.4-1.45c-30.49,8.32-61.11,18.28-93.12,16.83-7.63-.34-16.32-.36-23.36-3.61-6.32-2.92-10.79-8.93-12.8-15.49-4.38-14.33,3.18-29.39,16-36.4.84-.47.09-1.76-.76-1.3Z"/><path class="cls-3" d="M187.11,141.67c6.49,13.38,20.49,17.79,34.08,13.22.91-.3.52-1.75-.4-1.44-12.95,4.35-26.2.22-32.38-12.54-.43-.87-1.72-.11-1.3.76Z"/><path class="cls-3" d="M204.35,137.5a23.23,23.23,0,0,0,16.44,17.39.75.75,0,0,0,.4-1.44A21.73,21.73,0,0,1,205.8,137.1c-.21-.94-1.66-.54-1.45.4Z"/><path class="cls-3" d="M81.56,98.25A777.89,777.89,0,0,1,187.47,77c7.95-1,16.42-2.61,24.4-1,9.35,1.91,15,9,17,18.06,4,18.22-6.8,36.21-24,42.54-.9.33-.51,1.78.39,1.45a39.07,39.07,0,0,0,23.93-24.17c3.74-11.27,2.69-26.7-7.06-34.78-10.19-8.45-25.66-4.83-37.52-3.25Q160.77,79,137.13,83.6c-18.82,3.68-37.48,8.12-56,13.2a.75.75,0,0,0,.4,1.45Z"/><path class="cls-3" d="M171.14,118.77a4.76,4.76,0,1,0,5.76,4.41c-.11-2.41-2.51-4.38-4.76-2.94-.81.52-.06,1.81.75,1.29,2.19-1.4,2.88,2,2.12,3.36a3.17,3.17,0,0,1-3.84,1.6,3.26,3.26,0,0,1,.37-6.27.75.75,0,0,0-.4-1.45Z"/><path class="cls-3" d="M187.47,115.56a4.15,4.15,0,1,0,6.32,1.55c-.91-2-3.72-2.9-5-.75-.5.82.79,1.58,1.3.75,1.06-1.73,2.67.68,2.58,1.86a2.61,2.61,0,0,1-2.29,2.46,2.67,2.67,0,0,1-1.81-4.81c.75-.61-.32-1.67-1.06-1.06Z"/><path class="cls-3" d="M203.28,114.7a3.8,3.8,0,1,0,4.5-3.66c-1.91-.38-4,1.17-3.24,3.22.32.9,1.77.52,1.44-.4-.59-1.67,1.73-1.53,2.53-.85a2.23,2.23,0,0,1,.58,2.82,2.3,2.3,0,0,1-4.31-1.13c0-1-1.53-1-1.5,0Z"/></g></g></svg>