<svg xmlns="http://www.w3.org/2000/svg" viewBox="0 0 84.4 84.4"><defs><style>.cls-1,.cls-2,.cls-3{fill:#3a6db5;}.cls-1{opacity:0.25;}.cls-2{opacity:0.5;}.cls-4{fill:#fff;}</style></defs><title>facebookRisorsa 1</title><g id="Livello_2" data-name="Livello 2"><g id="Livello_2-2" data-name="Livello 2"><rect class="cls-1" x="14.35" y="14.35" width="55.7" height="55.7" rx="1.36" ry="1.36" transform="translate(41.7 -17.48) rotate(44.52)"/><rect class="cls-2" x="8.64" y="8.64" width="67.11" height="67.11" rx="1.36" ry="1.36" transform="translate(15.81 -11.33) rotate(18.76)"/><rect class="cls-3" x="11.58" y="11.58" width="61.23" height="61.23" rx="1.36" ry="1.36" transform="translate(1.5 -1.45) rotate(2)"/><rect class="cls-4" x="14.37" y="14.37" width="55.67" height="55.67" rx="1.98" ry="1.98"/><path id="f" class="cls-3" d="M44.73,58.57V43.64h5l.76-5.82H44.73V34.1c0-1.69.47-2.83,2.89-2.83H50.7V26.06a41.29,41.29,0,0,0-4.49-.23c-4.44,0-7.49,2.71-7.49,7.69v4.3h-5v5.82h5V58.57Z"/></g></g></svg>