<svg xmlns="http://www.w3.org/2000/svg" viewBox="0 0 204.66 165.29"><defs><style>.cls-1{fill:#14b865;}.cls-2{fill:#fff;}.cls-3{fill:#231f20;}</style></defs><title>contactsRisorsa 31</title><g id="Livello_2" data-name="Livello 2"><g id="Livello_5" data-name="Livello 5"><path class="cls-1" d="M9.83,49C2.88,56.69-2.81,77.48,1.49,102.68c2,11.44,3.38,19.82,10.34,25,7.28,5.42,14,2.44,21.34,9,6.72,6,4.55,11.6,9.06,17.89C53,169.61,86.52,167,107.53,158c4.09-1.74,20.1-8.54,32.3-23.67,3.47-4.3,3.73-5.72,7-8.67,11.8-10.62,22.58-5.69,34.81-12.25,16.9-9.06,20.79-31.29,21.54-35.55,1.32-7.43,3.9-21.71-4-32-5.41-7.07-11.5-6.74-15.91-15.33-3.93-7.63-1.09-11.71-4-17.5C174.05,2.65,157.49,1,148.8.3,123-1.89,119.6,8.39,76.25,16.09c-13.73,2.44-21.76,2.89-30,9.61-6.7,5.42-9.15,11.36-17.71,13.66A57.91,57.91,0,0,0,16,43.82,33,33,0,0,0,9.83,49Z"/><path class="cls-2" d="M101.86,85.65s-24.18-.72-44.6,11.24C34.54,110.2,31.52,124.5,31.52,129.7c0,8,4.32,20.78,31.82,20.78s85.48.83,85.48.83,26.56,0,24.31-27.76c0,0-10-21-34.82-31.76C138.31,91.79,119.61,85.33,101.86,85.65Z"/><path class="cls-2" d="M134.33,38.39c0,18.18-14.27,32.92-32.45,32.92a32.92,32.92,0,1,1,0-65.84C120.06,5.47,134.33,20.21,134.33,38.39Z"/><path class="cls-3" d="M123.9,65.22c11.07-9.66,15.52-25.8,9.67-39.51-5.72-13.43-19.73-22.28-34.34-21A34.37,34.37,0,0,0,68.66,30.81c-3.21,13.58,2,28.77,13.63,36.82,10.69,7.44,26.31,9.09,37.37,1.21.78-.56,0-1.86-.76-1.3-11.62,8.28-28.4,5.7-38.64-3.41C66.78,52.14,65.47,30,77.71,16.7,90.32,3,112.43,2.79,125.35,16.07c13.35,13.72,11.73,35.67-2.51,48.09-.73.64.34,1.69,1.06,1.06Z"/><path class="cls-3" d="M130.54,88.22c-22.08-6.5-44.82-5.8-66.15,3.14-16.75,7-43.69,26.63-33.67,48.23,4.47,9.65,15.59,11.91,25.16,12.53,14.87,1,29.8.47,44.69.48,13.23,0,26.48.34,39.7-.11,10.34-.35,23-.31,30.37-9S175,122,168.88,113.47c-7.81-10.86-19.53-18.15-31.78-23-.9-.36-1.29,1.09-.4,1.44,10.59,4.19,20.49,10.18,28.07,18.81s13.33,23.2,3.83,32.81c-8.24,8.33-22.42,7.37-33.16,7.57-11,.21-22.07,0-33.1,0s-22,.21-32.94,0-25.67.92-34.13-7.59c-9.52-9.59-3.76-24.16,3.83-32.81A69.51,69.51,0,0,1,63.05,93.57c21.41-9.61,44.71-10.49,67.09-3.9a.75.75,0,0,0,.4-1.45Z"/></g></g></svg>