<svg xmlns="http://www.w3.org/2000/svg" xmlns:xlink="http://www.w3.org/1999/xlink" viewBox="0 0 84.4 84.4"><defs><style>.cls-1{opacity:0.25;fill:url(#Sfumatura_senza_nome_17);}.cls-2{opacity:0.5;fill:url(#Sfumatura_senza_nome_17-2);}.cls-3{fill:url(#Sfumatura_senza_nome_17-3);}.cls-4{fill:#fff;}.cls-5{fill:url(#Sfumatura_senza_nome_17-4);}.cls-6{fill:url(#Sfumatura_senza_nome_17-5);}.cls-7{fill:url(#Sfumatura_senza_nome_17-6);}</style><linearGradient id="Sfumatura_senza_nome_17" x1="3.38" y1="42.2" x2="81.02" y2="42.2" gradientTransform="translate(-17.48 41.7) rotate(-44.52)" gradientUnits="userSpaceOnUse"><stop offset="0" stop-color="#f49950"/><stop offset="0.31" stop-color="#e4274a"/><stop offset="0.68" stop-color="#a64092"/><stop offset="1" stop-color="#6f53a1"/></linearGradient><linearGradient id="Sfumatura_senza_nome_17-2" x1="0" y1="42.2" x2="84.4" y2="42.2" gradientTransform="translate(-11.33 15.81) rotate(-18.76)" xlink:href="#Sfumatura_senza_nome_17"/><linearGradient id="Sfumatura_senza_nome_17-3" x1="8.36" y1="45.16" x2="76.03" y2="39.24" gradientTransform="translate(-1.45 1.5) rotate(-2)" xlink:href="#Sfumatura_senza_nome_17"/><linearGradient id="Sfumatura_senza_nome_17-4" x1="36.67" y1="47.73" x2="47.73" y2="36.67" gradientTransform="matrix(1, 0, 0, 1, 0, 0)" xlink:href="#Sfumatura_senza_nome_17"/><linearGradient id="Sfumatura_senza_nome_17-5" x1="48.96" y1="35.47" x2="51.75" y2="32.67" gradientTransform="matrix(1, 0, 0, 1, 0, 0)" xlink:href="#Sfumatura_senza_nome_17"/><linearGradient id="Sfumatura_senza_nome_17-6" x1="29.48" y1="54.92" x2="54.92" y2="29.48" gradientTransform="matrix(1, 0, 0, 1, 0, 0)" xlink:href="#Sfumatura_senza_nome_17"/></defs><title>instagramRisorsa 2</title><g id="Livello_2" data-name="Livello 2"><g id="Livello_2-2" data-name="Livello 2"><rect class="cls-1" x="14.35" y="14.35" width="55.7" height="55.7" rx="1.36" ry="1.36" transform="translate(41.7 -17.48) rotate(44.52)"/><rect class="cls-2" x="8.64" y="8.64" width="67.11" height="67.11" rx="1.36" ry="1.36" transform="translate(15.81 -11.33) rotate(18.76)"/><rect class="cls-3" x="11.58" y="11.58" width="61.23" height="61.23" rx="1.36" ry="1.36" transform="matrix(1, 0.03, -0.03, 1, 1.5, -1.45)"/><rect class="cls-4" x="14.37" y="14.37" width="55.67" height="55.67" rx="1.98" ry="1.98"/><path class="cls-5" d="M42.2,34.38A7.82,7.82,0,1,0,50,42.2,7.83,7.83,0,0,0,42.2,34.38Zm0,12.95a5.13,5.13,0,1,1,5.13-5.13A5.13,5.13,0,0,1,42.2,47.33Z"/><path class="cls-6" d="M51.75,32.67a2,2,0,0,1,0,2.8,2,2,0,0,1-1.4.57A2,2,0,0,1,49,32.67a2,2,0,0,1,1.39-.58A2,2,0,0,1,51.75,32.67Z"/><path class="cls-7" d="M49,27H35.4A8.39,8.39,0,0,0,27,35.4V49a8.39,8.39,0,0,0,8.38,8.38H49A8.39,8.39,0,0,0,57.38,49V35.4A8.39,8.39,0,0,0,49,27Zm5.69,22A5.69,5.69,0,0,1,49,54.69H35.4A5.69,5.69,0,0,1,29.71,49V35.4a5.69,5.69,0,0,1,5.69-5.69H49a5.69,5.69,0,0,1,5.69,5.69Z"/></g></g></svg>