<svg xmlns="http://www.w3.org/2000/svg" viewBox="0 0 84.4 84.4"><defs><style>.cls-1,.cls-2,.cls-3{fill:#da2128;}.cls-1{opacity:0.25;}.cls-2{opacity:0.5;}.cls-4{fill:#fff;}</style></defs><title>mailRisorsa 3</title><g id="Livello_2" data-name="Livello 2"><g id="Livello_2-2" data-name="Livello 2"><rect class="cls-1" x="14.35" y="14.35" width="55.7" height="55.7" rx="1.36" ry="1.36" transform="translate(41.7 -17.48) rotate(44.52)"/><rect class="cls-2" x="8.64" y="8.64" width="67.11" height="67.11" rx="1.36" ry="1.36" transform="translate(15.81 -11.33) rotate(18.76)"/><rect class="cls-3" x="11.58" y="11.58" width="61.23" height="61.23" rx="1.36" ry="1.36" transform="matrix(1, 0.03, -0.03, 1, 1.5, -1.45)"/><rect class="cls-4" x="14.37" y="14.37" width="55.67" height="55.67" rx="1.98" ry="1.98"/><path class="cls-3" d="M53.12,30.84A14.68,14.68,0,0,0,42.79,27a15.49,15.49,0,0,0-11.07,4.36,14.28,14.28,0,0,0-4.56,10.83,14.9,14.9,0,0,0,4.35,10.7c2.88,3,6.84,4.47,11.76,4.47a22.46,22.46,0,0,0,8.85-1.86A1.18,1.18,0,0,0,52.75,54a1.14,1.14,0,0,0-1.07-.71,1.22,1.22,0,0,0-.46.09,20.15,20.15,0,0,1-8,1.75c-4.18,0-7.47-1.31-9.8-3.88a13.17,13.17,0,0,1-3.45-9,12.86,12.86,0,0,1,3.72-9.39,12.3,12.3,0,0,1,9.13-3.79,12.12,12.12,0,0,1,8.43,3.13,10.19,10.19,0,0,1,3.48,7.91,9.05,9.05,0,0,1-1.63,5.5c-1.12,1.53-2.37,2.32-3.7,2.32a1.56,1.56,0,0,1-1.65-1.71,17.18,17.18,0,0,1,.12-1.85l1.1-9H46.34l-.11.39-.32,1.17L45,36.1A4.57,4.57,0,0,0,42,35a5.88,5.88,0,0,0-4.56,2.14,8.05,8.05,0,0,0-1.94,5.65,8.14,8.14,0,0,0,1.72,5.43,5,5,0,0,0,4,2,4.43,4.43,0,0,0,3.5-1.72l.67-.8.58.87A3.47,3.47,0,0,0,49,50.09a7.23,7.23,0,0,0,5.73-2.9A10.92,10.92,0,0,0,57.24,40,11.87,11.87,0,0,0,53.12,30.84ZM44.69,45.71a4,4,0,0,1-3.27,1.81A2.64,2.64,0,0,1,39.05,46a6,6,0,0,1-.75-3.13,6.21,6.21,0,0,1,1.05-3.7,3.51,3.51,0,0,1,2.87-1.57,3.55,3.55,0,0,1,2.61,1.17,4.17,4.17,0,0,1,1.13,3A6.4,6.4,0,0,1,44.69,45.71Z"/></g></g></svg>