<svg xmlns="http://www.w3.org/2000/svg" viewBox="0 0 54 54"><defs><style>.cls-1{fill:#005fa2;}</style></defs><title>biologyRisorsa 20</title><g id="Livello_2" data-name="Livello 2"><g id="Livello_2-2" data-name="Livello 2"><path d="M15.21,21.53c-.83,0-1.72-.64-2.77-2a.62.62,0,0,1,.1-.88.63.63,0,0,1,.88.11C14.36,20,15,20.34,15.3,20.27s.47-.56.68-1a3.44,3.44,0,0,1,1.68-2.05c1-.4,2.19-.09,3.6.93a.62.62,0,1,1-.72,1c-1-.73-1.87-1-2.41-.79s-.73.78-1,1.4-.68,1.56-1.54,1.76A1.64,1.64,0,0,1,15.21,21.53Z"/><path d="M25.88,43.26a.62.62,0,0,1-.62-.62.62.62,0,0,1,.61-.63c1.53,0,2.21-.32,2.33-.59s-.16-.72-.42-1.18a3.45,3.45,0,0,1-.62-2.58c.27-1,1.25-1.79,2.92-2.3a.61.61,0,0,1,.78.41.62.62,0,0,1-.41.78c-1.21.37-1.93.87-2.08,1.44a2.37,2.37,0,0,0,.5,1.64,2.54,2.54,0,0,1,.47,2.29c-.39.89-1.49,1.31-3.45,1.34Z"/><path d="M28.42,12.91c-.29,0-.58,0-.87,0a19.33,19.33,0,0,1-2.4-.25.62.62,0,0,1-.51-.72.61.61,0,0,1,.71-.51,19.23,19.23,0,0,0,2.26.23,16.8,16.8,0,0,0,2.13,0,.61.61,0,0,1,.67.57.61.61,0,0,1-.58.67C29.36,12.9,28.89,12.91,28.42,12.91Z"/><path d="M23,41a.62.62,0,0,1-.6-.45,20.2,20.2,0,0,0-.77-2.14,16.91,16.91,0,0,0-1-1.9.63.63,0,0,1,1.09-.63c.37.66.72,1.35,1,2a22,22,0,0,1,.82,2.28.63.63,0,0,1-.43.77Z"/><path d="M34.65,21.08a.63.63,0,0,1-.52-.28,9.29,9.29,0,0,0-3.44-3.06,9.49,9.49,0,0,0-5.29-1,.62.62,0,0,1-.69-.55.63.63,0,0,1,.55-.69,10.5,10.5,0,0,1,9.91,4.56A.63.63,0,0,1,35,21,.66.66,0,0,1,34.65,21.08Z"/><path d="M36.82,28.43h-.09a.63.63,0,0,1-.53-.71,8.43,8.43,0,0,0,0-2.7,8.72,8.72,0,0,0-.76-2.33.62.62,0,1,1,1.12-.55,9.65,9.65,0,0,1,.87,2.66,9.77,9.77,0,0,1,0,3.1A.63.63,0,0,1,36.82,28.43Z"/><path d="M40.88,28.19h0a.63.63,0,0,1-.58-.67,13.89,13.89,0,0,0-9.13-14,.62.62,0,1,1,.43-1.17,15.17,15.17,0,0,1,10,15.3A.62.62,0,0,1,40.88,28.19Z"/><path d="M14.92,35.72a3.37,3.37,0,0,1-3.09-2,3.42,3.42,0,0,1,1.41-4.15,3.38,3.38,0,0,1,4,.21,3.34,3.34,0,0,1,1,3.54.64.64,0,0,1-.79.41A.62.62,0,0,1,17,33a2.1,2.1,0,0,0-.6-2.22,2.14,2.14,0,0,0-2.49-.1,2.19,2.19,0,0,0-.92,2.6,2.13,2.13,0,0,0,2.35,1.19.63.63,0,1,1,.23,1.23A3.47,3.47,0,0,1,14.92,35.72Z"/><path d="M36.87,37.39a3.35,3.35,0,0,1-3.09-2,3.46,3.46,0,0,1,5.37-3.94,3.34,3.34,0,0,1,1,3.54.63.63,0,1,1-1.2-.37,2.08,2.08,0,0,0-.6-2.22,2.14,2.14,0,0,0-2.48-.1,2.19,2.19,0,0,0-.93,2.6,2.11,2.11,0,0,0,2.35,1.19.63.63,0,0,1,.23,1.23A3.47,3.47,0,0,1,36.87,37.39Z"/><path d="M26.29,34.16a7.43,7.43,0,1,1,7.43-7.43A7.43,7.43,0,0,1,26.29,34.16Zm0-13.6a6.18,6.18,0,1,0,6.18,6.17A6.18,6.18,0,0,0,26.29,20.56Z"/><path d="M23.7,29a.58.58,0,0,1-.26-.06.63.63,0,0,1-.31-.83l2.06-4.49a.63.63,0,1,1,1.14.52l-2.06,4.5A.64.64,0,0,1,23.7,29Z"/><path d="M26.82,30.26a.6.6,0,0,1-.26-.05.64.64,0,0,1-.31-.83l2.07-4.5a.62.62,0,1,1,1.13.52l-2.06,4.5A.61.61,0,0,1,26.82,30.26Z"/><path d="M23,14a1.69,1.69,0,1,1-1.69-1.68A1.69,1.69,0,0,1,23,14Z"/><path d="M16.21,25.68A1.68,1.68,0,1,1,14.53,24,1.68,1.68,0,0,1,16.21,25.68Z"/><circle cx="32.92" cy="39.79" r="1.68"/><path d="M19.21,38.87a1.68,1.68,0,1,1-1.68-1.68A1.68,1.68,0,0,1,19.21,38.87Z"/><path d="M41.46,13.23l1.91-2.12a.62.62,0,0,0-.93-.83l-1.86,2.07-.08-.08c-.73-.67-7.43-6.55-16.58-5.06a19.16,19.16,0,0,0-7,2.65,21,21,0,0,0-6.23,6L8.17,14.25a.63.63,0,0,0-.87.18.64.64,0,0,0,.19.87L10,16.94a21.29,21.29,0,0,0-2.66,6.82c-.1.48-2.29,11.85,5.87,18.9.09.08.28.24.57.45A19.85,19.85,0,0,0,25.21,47,16.38,16.38,0,0,0,26.9,47c3.29-.33,5.7-1.54,8.81-3.34h0l1.62,2.81a.62.62,0,0,0,.54.32.59.59,0,0,0,.31-.09.62.62,0,0,0,.23-.85L36.79,43l.05,0c3.16-1.85,5-3.13,6.59-5a15.14,15.14,0,0,0,1.23-1.69C48.76,29.8,47.27,19.37,41.46,13.23ZM43.6,35.62a13.92,13.92,0,0,1-1.13,1.55c-1.42,1.7-3.22,2.91-6.26,4.7-.19.11-.37.23-.58.34h0c-3.24,1.9-5.61,3.17-8.85,3.5A18.13,18.13,0,0,1,14.53,42.1c-.25-.18-.42-.32-.53-.41C6.42,35.13,8.49,24.46,8.58,24a20,20,0,0,1,2.78-6.89s0,0,0,0l0,0a20.22,20.22,0,0,1,6.18-6.14,17.75,17.75,0,0,1,6.54-2.47,16.93,16.93,0,0,1,2.79-.23,20,20,0,0,1,12.74,5l.14.13.31.29a.43.43,0,0,0,.09.1,19.91,19.91,0,0,1,5.56,13.82A15.09,15.09,0,0,1,43.6,35.62Z"/></g></g></svg>