<svg xmlns="http://www.w3.org/2000/svg" viewBox="0 0 54 54"><defs><style>.cls-1{fill:#005fa2;}</style></defs><title>chemRisorsa 21</title><g id="Livello_2" data-name="Livello 2"><g id="Livello_2-2" data-name="Livello 2"><path d="M48.13,36.92l-17.5-17.5L31,17.56a2,2,0,0,0-.54-1.79L29,14.32a2.05,2.05,0,0,0-2.84,0l-7.42,7.42a2,2,0,0,0,0,2.82L20.21,26a2,2,0,0,0,1.4.58,1.55,1.55,0,0,0,.37,0l1.87-.37,17.5,17.5a4.74,4.74,0,0,0,3.38,1.4h0a4.79,4.79,0,0,0,3.39-8.18Zm-.89,5.89a3.5,3.5,0,0,1-2.5,1h0a3.47,3.47,0,0,1-2.49-1L24.94,25.53l2.83-2.83a.62.62,0,0,0-.88-.88L23.75,25l-2,.4a.73.73,0,0,1-.65-.21l-1.46-1.46a.75.75,0,0,1-.22-.53.73.73,0,0,1,.22-.52l7.43-7.43a.77.77,0,0,1,1.06,0l1.46,1.46a.71.71,0,0,1,.2.65l-.44,2.2a.61.61,0,0,0,.1.46.39.39,0,0,0,.08.1l0,0,17.7,17.71A3.53,3.53,0,0,1,47.24,42.81Z"/><path d="M25.3,14.28a.62.62,0,0,1-.76-.45A4.66,4.66,0,0,0,16,12.37a.63.63,0,0,1-.79.22A6.52,6.52,0,0,0,8,13.71a6.54,6.54,0,0,0-1.28,7.43,8,8,0,0,1,1.18-1.07.63.63,0,1,1,.75,1c-2.86,2.14-3.76,6.05-2,8.72a6.39,6.39,0,0,0,6.29,2.55.61.61,0,0,1,.7.53.63.63,0,0,1-.53.71,9.83,9.83,0,0,1-1.21.08h-.16a5.93,5.93,0,0,0,5.44,5h0a5.37,5.37,0,0,0,4-1.91,6.32,6.32,0,0,0,1.59-4.17,4.93,4.93,0,0,1-.87.33h-.15a.62.62,0,0,1-.15-1.23,2.77,2.77,0,0,0,1.81-1.44,2.53,2.53,0,0,0,.2-1.36.61.61,0,0,1,.54-.7.63.63,0,0,1,.7.54,3.73,3.73,0,0,1-.3,2,3.6,3.6,0,0,1-.58.89A7.62,7.62,0,0,1,22,37.62,6.65,6.65,0,0,1,17.14,40h0a7.16,7.16,0,0,1-6.72-6.28.62.62,0,0,1,0-.13,7.2,7.2,0,0,1-4.84-3.07,7.59,7.59,0,0,1,.28-8.24A7.83,7.83,0,0,1,7.1,12.81a7.74,7.74,0,0,1,8.17-1.56,5.93,5.93,0,0,1,5.22-2.32,6,6,0,0,1,5.26,4.59A.62.62,0,0,1,25.3,14.28Z"/><path d="M12.13,24.43a.61.61,0,0,1-.59-.41,5.65,5.65,0,0,1,1.2-5.86,6,6,0,0,1,5.32-1.55.64.64,0,0,1,.47.75.63.63,0,0,1-.75.47A4.64,4.64,0,0,0,13.64,19a4.4,4.4,0,0,0-.93,4.56.62.62,0,0,1-.37.8A.52.52,0,0,1,12.13,24.43Z"/></g></g></svg>